<svg xmlns="http://www.w3.org/2000/svg" viewBox="0 330 2048 2180"><g id="paper" data-depth="0"><path fill="#f0efd7" d="M1974.289 2295.303L73.711 2295.303L73.711 436.696L1974.289 436.696ZZ"/><path fill="#d1ce86" d="M1684.0568 2353.2752C1679.8328 2350.2202 1689.9688 2337.6712 1691.3888 2333.9662C1695.9328 2320.8112 1711.2298 2316.5192 1707.6308 2335.1722C1710.0708 2331.6072 1712.6318 2327.8712 1716.3368 2325.5242C1722.2918 2321.8512 1724.0018 2326.6842 1723.9768 2331.9452C1724.5338 2336.1382 1720.0258 2344.1172 1724.6488 2346.4292C1725.5218 2346.5282 1726.0108 2345.4552 1726.5638 2344.9272C1728.1418 2342.8512 1729.4598 2340.5892 1731.0398 2338.5152C1733.4458 2335.3802 1736.1358 2332.4722 1738.1178 2329.0322C1739.4868 2326.7402 1743.1398 2326.9852 1742.6778 2330.1272C1742.0358 2333.8632 1741.0048 2337.5432 1740.5438 2341.3112C1740.3398 2343.1172 1740.5578 2345.0872 1741.8128 2346.4642C1744.1168 2348.0792 1751.6028 2337.5602 1753.1238 2335.6202C1754.1898 2333.4042 1754.9158 2330.0732 1757.7378 2329.5402C1758.8058 2329.3962 1759.4748 2330.2202 1759.5958 2331.1492C1759.6008 2331.1462 1759.6048 2331.1422 1759.6098 2331.1392C1759.7068 2332.0542 1759.2748 2332.8672 1758.8438 2333.6482C1758.1408 2335.8182 1757.2148 2337.9242 1756.0858 2339.9032C1755.3048 2350.7812 1763.6788 2344.0582 1767.1488 2339.4212C1769.0698 2336.7462 1770.4698 2333.7512 1771.9708 2330.8282C1773.3888 2328.1702 1776.8968 2323.0092 1780.3798 2324.1302C1783.5518 2326.1162 1780.1728 2329.7822 1779.9168 2332.4522C1779.3628 2334.9442 1779.3848 2337.4902 1779.4088 2340.0272C1779.4928 2343.1852 1778.4658 2346.1932 1777.5828 2349.1802C1780.1488 2348.2932 1782.7938 2347.7142 1785.1768 2346.4382C1786.5448 2345.2362 1787.7818 2343.8872 1788.9718 2342.5112C1787.8288 2338.5932 1788.5338 2334.1542 1791.3978 2331.1472C1793.4118 2329.1532 1796.1078 2324.2822 1799.4288 2325.6592C1801.1598 2326.6782 1801.0878 2328.9302 1800.8178 2330.6882C1801.1968 2335.7542 1798.2308 2340.2052 1794.3038 2343.1442C1794.5098 2343.4442 1794.7228 2343.7692 1795.0328 2343.9672C1796.9548 2341.9402 1798.5538 2339.5622 1800.2168 2337.3152C1802.4108 2333.3702 1804.0488 2328.3092 1808.9318 2327.0652C1820.4718 2324.2592 1813.0738 2337.5992 1814.6558 2343.3242C1816.3628 2340.3662 1818.0098 2337.3282 1820.1048 2334.6312C1821.5108 2333.0422 1823.3968 2331.9442 1825.2418 2330.9422C1827.7878 2329.7182 1831.7258 2328.8662 1833.6998 2331.4522C1835.4378 2334.6872 1833.4548 2338.5372 1834.6458 2341.9122C1835.7738 2344.8892 1838.6108 2346.8012 1841.3508 2348.1732C1843.7548 2349.0002 1846.2568 2347.3592 1847.7788 2345.5852C1846.0338 2346.0712 1844.4998 2344.7532 1843.4048 2343.5462C1840.9278 2339.9612 1840.9708 2333.8452 1842.3778 2329.9322C1844.7638 2323.7792 1852.8388 2319.2942 1853.9568 2328.8212C1856.2188 2323.0962 1856.1478 2315.9422 1861.3418 2311.8172C1862.0368 2311.2292 1863.0108 2310.4152 1863.9358 2311.0622C1864.6258 2311.5412 1864.5158 2312.4712 1864.1788 2313.1462C1863.8968 2314.0742 1863.6178 2314.9832 1863.4218 2315.8802C1862.7218 2320.7792 1861.9788 2325.6852 1860.4088 2330.3992C1859.4268 2333.5082 1857.2278 2335.6512 1857.6218 2339.1022C1857.6258 2340.3282 1857.9668 2342.0372 1859.2808 2342.3802C1861.1578 2342.7492 1863.0138 2341.7632 1864.6568 2340.9622C1864.9248 2336.1042 1866.9058 2330.9872 1871.0688 2328.1942C1872.1168 2327.5282 1873.2748 2326.9842 1874.5358 2327.3052C1876.7868 2328.1092 1877.4688 2330.9692 1877.2228 2333.1222C1876.8518 2337.2842 1873.8398 2340.6582 1870.4018 2342.7602C1870.5148 2343.6312 1870.8638 2344.6222 1871.8848 2343.9842C1873.3248 2343.3432 1874.5248 2342.3272 1875.7698 2341.3952C1876.9418 2340.4142 1878.0718 2339.3842 1879.1048 2338.2572C1880.1678 2335.8412 1880.8288 2333.2892 1883.1018 2332.1282C1883.8328 2331.8492 1884.6378 2331.9032 1885.2118 2332.4702C1887.2548 2335.2182 1884.6198 2339.3942 1883.2718 2341.9842C1884.5808 2345.3242 1887.4548 2346.4582 1890.4658 2344.3152C1892.8638 2343.2062 1895.4528 2338.0182 1898.2608 2340.3262C1901.0768 2343.7652 1892.9948 2349.2762 1890.3418 2350.6982C1886.1228 2353.0742 1881.1198 2352.2552 1879.0398 2347.5822C1874.3538 2352.3702 1865.7738 2353.7732 1864.7258 2345.2562C1861.1998 2346.6362 1856.0378 2348.6172 1853.6688 2344.4032C1850.9488 2349.3442 1845.3768 2354.4812 1839.3558 2353.5882C1832.8068 2350.6602 1828.8148 2343.4862 1827.5518 2336.6392C1818.5938 2335.3612 1819.2558 2345.0872 1815.7168 2350.5252C1814.8308 2352.0942 1812.7458 2353.8572 1810.9348 2352.6742C1808.1978 2350.2882 1810.8768 2343.8002 1811.4558 2340.6992C1812.0538 2337.7882 1812.2718 2334.6012 1811.7638 2331.7842C1805.6468 2331.5772 1805.4908 2337.4692 1802.9408 2341.4442C1800.6868 2345.6752 1794.2468 2352.5092 1790.4688 2346.0412C1786.7368 2348.6742 1783.3978 2352.0832 1779.1208 2353.8092C1776.8168 2354.7432 1772.1108 2355.7792 1772.0638 2352.0382C1772.4598 2350.0942 1773.6188 2348.3682 1773.9358 2346.3672C1774.5058 2342.1882 1775.1838 2338.0212 1775.9278 2333.8692C1773.1358 2336.7692 1770.2848 2339.6762 1768.1258 2343.0962C1766.0498 2346.5262 1763.9968 2350.1662 1760.6608 2352.5262C1755.3738 2356.1762 1750.4498 2352.3962 1751.0558 2346.3582C1748.3108 2348.5232 1744.8118 2350.1962 1741.2758 2350.2702C1737.7508 2349.7552 1735.5838 2345.8322 1735.2918 2342.5492C1732.3528 2346.3202 1727.0558 2353.2562 1721.8428 2349.3912C1719.8188 2347.8722 1718.5128 2345.6112 1718.0638 2343.1372C1717.2348 2339.2352 1717.8508 2335.2122 1717.5018 2331.2632C1715.1448 2334.5622 1713.5358 2338.4322 1711.0328 2341.6772C1709.7138 2343.3232 1704.4988 2351.5432 1702.2658 2348.9222C1701.5428 2347.2452 1702.1808 2345.2832 1701.9918 2343.4972C1701.5748 2339.0582 1701.9598 2334.4682 1700.7388 2330.1452C1697.9438 2331.2512 1696.1338 2333.8832 1694.1338 2336.0042C1693.2908 2337.0692 1692.5838 2338.1982 1692.0248 2339.3772C1690.2468 2342.8162 1689.4018 2354.3082 1684.0568 2353.2752M1793.6098 2334.6572C1794.2728 2333.6062 1794.8748 2332.5132 1795.3658 2331.3712C1794.5918 2332.4632 1793.8528 2333.4392 1793.6098 2334.6572M1848.6508 2341.3882C1848.8548 2341.2882 1849.4318 2340.7222 1849.4328 2340.6752C1852.4338 2337.2052 1851.3098 2334.2322 1849.5618 2330.5242C1848.3148 2333.5182 1845.9258 2338.7052 1848.6508 2341.3882Z"/><path fill="#d1ce86" d="M1917.3451 2354.0403C1916.4501 2351.3293 1918.7791 2348.7843 1919.7891 2346.3993C1921.6321 2341.2423 1923.0651 2335.9403 1925.7631 2331.1243C1927.8351 2326.1433 1928.1581 2320.5133 1931.4581 2316.0483C1932.7971 2314.1433 1934.5341 2312.7543 1936.2131 2315.1723C1937.3291 2316.5133 1935.7531 2318.8383 1934.1051 2318.4763C1932.0541 2322.5723 1930.2011 2326.9103 1929.1871 2331.3893C1928.8141 2334.8103 1928.3741 2338.2603 1926.9851 2341.4463C1925.7011 2344.5913 1923.7111 2347.4453 1922.9201 2350.7793C1923.6111 2353.6413 1919.2011 2357.2883 1917.3451 2354.0403Z"/><path fill="#d1ce86" d="M1935.4443 2358.1166C1927.9393 2355.7946 1927.3753 2351.5146 1927.5783 2344.4556C1924.4303 2344.9776 1924.3583 2340.9306 1926.1303 2339.2846C1929.0043 2336.2456 1931.2023 2332.7136 1934.2433 2329.8256C1936.4313 2327.5796 1938.0673 2324.9116 1939.9093 2322.3966C1940.8463 2321.3236 1941.8643 2320.0416 1943.3423 2319.7846C1945.3233 2319.7526 1944.8513 2322.1156 1944.0833 2323.2166C1943.3083 2324.4406 1941.8033 2328.7566 1939.8933 2327.1086C1938.2773 2329.0676 1937.4553 2331.4756 1936.4913 2333.7896C1935.2853 2336.5026 1933.6483 2339.0736 1931.7063 2341.3096C1934.0923 2345.5926 1932.2663 2352.8546 1937.7963 2354.8176C1937.9163 2354.8196 1938.0353 2354.8236 1938.1553 2354.8266C1938.3723 2354.8176 1938.5873 2354.7896 1938.5823 2354.7826C1938.7283 2354.7506 1938.8703 2354.7186 1938.8513 2354.7386C1941.0373 2354.5066 1943.0423 2350.2976 1945.1483 2352.5326C1946.8773 2356.9726 1938.5173 2358.6566 1935.4443 2358.1166Z"/><path fill="#d1ce86" d="M1790.1583 2347.7249C1787.9613 2346.5929 1790.6303 2342.6299 1790.9853 2340.8589C1791.3093 2339.7019 1791.0293 2337.6319 1792.6333 2337.4729C1792.7413 2335.9329 1793.0013 2334.4139 1793.2463 2332.8919C1792.5893 2333.3279 1792.1943 2334.0369 1791.8283 2334.7139C1791.3803 2335.4789 1790.7163 2336.1869 1790.8563 2337.1419C1790.8753 2337.9869 1791.0643 2339.1889 1790.1023 2339.5849C1789.6603 2339.7569 1789.2553 2339.5209 1789.1843 2339.0579C1788.8293 2337.3499 1789.2813 2335.6479 1790.3063 2334.2549C1791.3803 2333.0029 1793.2753 2329.8089 1795.1453 2331.3649C1796.9523 2333.8599 1795.5913 2337.1739 1794.8953 2339.8479C1794.3623 2342.1429 1793.4923 2348.5189 1790.1583 2347.7249Z"/><path fill="#d1ce86" d="M1951.4423 2357.7666C1950.0683 2357.4336 1949.8083 2355.9556 1950.0913 2354.7686C1950.3553 2353.7346 1951.1223 2352.9116 1951.8553 2352.1716C1952.4333 2351.4716 1953.0223 2350.7736 1953.8043 2350.3376C1955.3283 2349.3866 1957.0983 2350.6386 1956.7183 2352.3926C1956.3953 2354.0246 1955.2383 2355.3656 1954.2543 2356.6586C1954.2493 2356.6526 1954.2443 2356.6466 1954.2393 2356.6406C1953.5343 2357.4416 1952.5153 2358.0366 1951.4423 2357.7666Z"/><path fill="#d1ce86" d="M77.1351 2350.951C77.5651 2345.696 82.7171 2342.357 87.5621 2341.625C90.7981 2341.117 93.8481 2342.523 96.9501 2343.179C100.3571 2341.411 104.0081 2339.695 106.3271 2336.565C106.6501 2335.991 106.9091 2335.38 107.0901 2334.749C103.6321 2332.486 99.2691 2333.46 95.3671 2333.4C93.8571 2334.536 92.0041 2333.092 92.3451 2331.35C92.4891 2330.132 93.1531 2329.007 94.1201 2328.267C96.1561 2326.89 98.7821 2326.989 101.1461 2326.819C104.3241 2326.671 107.5541 2327.201 110.3361 2328.807C111.9341 2329.456 112.9541 2330.952 112.8801 2332.693C112.5001 2338.26 106.9111 2341.128 103.4481 2344.772C105.1181 2345.113 106.7521 2345.669 108.4251 2345.984C109.5601 2346.151 110.0151 2347.417 109.8961 2348.415C108.7471 2354.062 101.9341 2350.779 98.4831 2349.41C94.7301 2352.415 89.9001 2352.946 85.2911 2353.428C83.4941 2353.752 80.5711 2354.398 78.7561 2353.603C77.8121 2353.191 77.1671 2352.389 77.1351 2350.951M85.0551 2348.112C87.5651 2348.115 89.8131 2346.763 92.0391 2345.759C89.4371 2344.662 86.9701 2346.528 85.0551 2348.112Z"/><path fill="#d1ce86" d="M116.6745 2357.787C112.2335 2353.985 117.9375 2347.543 122.3155 2346.752C123.5395 2346.518 124.5855 2347.116 125.6015 2347.732C127.3655 2348.54 129.3175 2348.733 131.1735 2349.237C133.1715 2347.391 143.0635 2340.944 141.2545 2338.18C138.7425 2336.837 135.8005 2336.03 132.9875 2336.845C132.4535 2338.367 130.6845 2338.955 129.2945 2338.212C128.8155 2338.273 128.3145 2338.145 127.9675 2337.812C126.5005 2336.013 128.4555 2333.705 130.1155 2332.847C134.8055 2330.536 142.7435 2329.053 145.6805 2334.618C147.3655 2338.907 141.6385 2347.47 138.8125 2350.745C141.2395 2350.318 143.7345 2349.88 146.2215 2349.615C147.2845 2349.025 148.6765 2348.915 149.4615 2350.018C151.0395 2352.668 147.9765 2356.785 145.0205 2356.519C143.3495 2356.471 141.6685 2356.651 140.0185 2356.327C139.6875 2356.34 138.7425 2356.461 138.6035 2356.428C136.6515 2356.411 134.6305 2355.912 132.9025 2355.011C128.4385 2356.795 121.9815 2360.137 117.2255 2358.057C117.0395 2357.975 116.8555 2357.886 116.6745 2357.787Z"/><path fill="#d1ce86" d="M158.8506 2357.8078C156.2586 2354.6288 161.3296 2348.8918 164.7256 2351.5128C167.8226 2354.2788 162.6596 2359.5618 159.4216 2358.1458C159.2236 2358.0588 159.0326 2357.9468 158.8506 2357.8078Z"/><path fill="#d1ce86" d="M182.6821 2356.3302C180.0961 2354.0272 180.4901 2350.1902 182.2041 2347.4922C183.5681 2345.1792 184.6081 2342.6662 186.2091 2340.4972C188.7341 2336.8232 193.1031 2335.5762 197.2211 2334.6442C198.4321 2334.2232 199.1511 2333.8322 200.2261 2333.5872C201.7951 2333.4132 203.3631 2333.9052 204.6401 2334.8032C208.6881 2336.5462 208.0451 2340.1972 206.7021 2343.6092C204.3301 2349.6532 198.9611 2354.2232 192.8101 2356.0902C190.1641 2357.1492 186.8601 2358.4882 184.1611 2357.3082C183.6421 2357.0812 183.1471 2356.7622 182.6821 2356.3302M196.8711 2337.9892C196.2321 2338.1472 195.5071 2338.6362 194.8581 2338.3802C190.9771 2340.1982 189.1631 2344.6042 186.3381 2347.6402C184.0711 2349.9152 186.9721 2351.9942 189.1451 2352.6642C191.1241 2353.1262 193.1361 2353.3462 195.0411 2352.6542C198.5231 2350.2272 200.5181 2346.0902 201.7491 2342.1262C200.9751 2340.6602 199.6731 2339.0132 198.0721 2338.3132C197.6881 2338.1452 197.2871 2338.0322 196.8711 2337.9892Z"/><path fill="#d1ce86" d="M214.3772 2357.8439C212.5192 2356.7009 212.7882 2355.0309 213.9782 2353.4699C215.0282 2351.3279 215.8612 2349.1219 217.5792 2347.3889C208.8672 2343.5109 213.1082 2336.6289 218.7192 2332.1909C220.7602 2330.5449 223.7432 2330.4069 226.1712 2331.1559C228.1702 2331.9449 229.0152 2334.2549 229.3942 2336.2129C230.5192 2335.2659 231.8962 2334.5379 232.7052 2333.2989C233.3482 2332.3769 235.0442 2332.2539 235.2012 2333.6119C235.3312 2335.4159 233.4502 2336.4259 232.2612 2337.4489C229.7512 2340.0519 227.7352 2343.0889 225.1812 2345.6689C228.1282 2350.1569 225.9382 2357.5749 220.3042 2358.4769C219.0412 2358.6219 217.7732 2358.3249 216.5202 2358.1789C215.8992 2358.1529 215.1802 2358.2129 214.5902 2357.9559C214.5172 2357.9239 214.4462 2357.8859 214.3772 2357.8439M215.7722 2354.5719C217.5022 2354.3829 219.7142 2354.2909 220.9742 2352.9509C221.7522 2351.9789 222.6152 2350.3069 221.4822 2349.2949C219.3502 2351.1279 217.2872 2352.3389 215.7722 2354.5719M221.0862 2334.8369C219.5262 2335.4349 219.0962 2337.5049 218.3882 2338.8749C218.8362 2339.7759 219.7252 2340.3599 220.4342 2341.0459C220.9322 2341.4889 221.4272 2341.9409 221.9182 2342.3909C222.6952 2341.6489 223.5172 2340.9499 224.2892 2340.2919C225.0172 2339.6609 225.7502 2339.0399 226.4952 2338.4339C226.2502 2336.9899 225.0992 2335.7699 223.7192 2335.1659C222.8762 2334.7969 221.9472 2334.6579 221.0862 2334.8369Z"/><path fill="#d1ce86" d="M238.86 2357.2983C238.766 2357.2033 238.699 2357.0963 238.654 2356.9823C237.408 2356.2833 237.855 2354.4243 238.74 2353.5893C239.771 2352.7733 240.742 2352.6013 241.888 2352.1433C242.476 2351.9073 242.948 2352.2763 243.397 2352.5723C244.118 2352.9733 244.031 2354.0713 243.711 2354.6913C242.994 2356.1743 241.402 2356.7633 239.886 2357.0633C239.704 2357.3193 239.309 2357.5313 239.007 2357.3993C238.955 2357.3763 238.905 2357.3433 238.86 2357.2983Z"/><path fill="#d1ce86" d="M236.388 2354.4254C236.32 2351.3004 240.244 2348.7224 242.197 2352.0064C243.42 2352.2834 243.226 2353.9994 242.6 2354.7984C242.855 2355.8604 241.585 2357.1504 240.63 2356.3034C240.212 2356.5234 239.741 2356.6294 239.255 2356.5294C239.114 2356.5004 238.984 2356.4564 238.866 2356.3954C238.403 2356.5524 237.95 2356.5164 237.56 2356.3454C236.851 2356.0364 236.352 2355.2824 236.388 2354.4254Z"/><path fill="#d1ce86" d="M257.2785 2356.3719C254.2865 2353.8509 259.7145 2348.9719 261.7845 2347.4149C264.9645 2345.6789 268.0615 2344.1829 271.7635 2344.7299C273.2825 2342.8609 274.8855 2340.3439 276.3925 2338.5959C276.9875 2337.8369 277.7865 2336.9239 277.1375 2335.9959C275.5265 2334.5989 273.0275 2334.5739 271.1715 2335.5349C269.4605 2336.9389 268.5975 2339.1749 267.1075 2340.7979C266.6265 2341.5149 265.2565 2341.8749 264.7975 2340.9179C264.2155 2339.4879 265.2265 2337.9929 265.8635 2336.7419C268.3545 2331.1619 274.3315 2326.4869 279.5535 2331.9879C282.8325 2336.2449 279.2245 2341.9479 276.8925 2345.8329C277.9735 2346.2379 279.1045 2346.5879 280.0855 2347.2019C280.7635 2347.4219 281.3085 2347.8819 281.5145 2348.5789C282.0315 2350.5419 280.4385 2352.7679 278.4025 2352.8499C275.8725 2352.6759 273.4805 2351.6169 271.0855 2350.8539C268.2905 2353.0059 262.1835 2358.7249 258.2665 2357.0119C257.9185 2356.8599 257.5885 2356.6489 257.2785 2356.3719M260.6935 2351.7709C262.1645 2351.0569 263.6405 2350.3399 265.0925 2349.5859C264.1815 2349.8219 263.2115 2349.8469 262.3075 2350.1169C262.2725 2350.1339 262.2375 2350.1509 262.2005 2350.1669C262.1375 2350.2079 262.0705 2350.2459 262.0055 2350.2809C262.0605 2350.2459 262.0995 2350.2149 262.1495 2350.1809C261.4835 2350.6179 261.0875 2351.1559 260.6935 2351.7709Z"/><path fill="#d1ce86" d="M294.2691 2339.5185C293.6051 2338.9155 294.4351 2338.0525 294.7791 2337.4935C295.5941 2336.1575 296.6231 2335.0055 297.9521 2334.1605C298.1361 2334.0285 298.4061 2333.9795 298.5551 2334.1895C298.8681 2334.7335 298.1801 2335.1075 297.8671 2335.4495C296.7111 2336.6455 296.1501 2338.1145 295.1071 2339.3515C294.9161 2339.5415 294.5961 2339.6685 294.3371 2339.5545C294.3141 2339.5445 294.2911 2339.5325 294.2691 2339.5185Z"/><path fill="#d1ce86" d="M288.693 2353.0751C285.834 2350.2911 287.645 2345.9111 289.654 2343.1701C286.826 2344.2451 286.283 2340.5011 288.083 2339.0351C289.654 2337.6041 291.82 2337.2751 293.873 2337.2281C295.839 2333.9741 298.715 2331.5261 302.147 2329.9281C304.274 2328.4061 308.035 2328.6931 306.667 2332.0901C306.263 2332.8911 305.459 2333.5071 304.537 2333.4751C302.554 2334.3361 300.846 2335.7891 299.083 2337.0271C307.693 2336.4491 312.402 2343.7971 305.504 2350.1241C302.033 2352.9651 295.143 2356.3251 290.537 2354.3101C289.868 2354.0181 289.248 2353.6121 288.693 2353.0751M295.799 2340.5411C294.276 2342.6071 293.37 2344.5231 293.161 2347.0071C293.795 2347.5551 294.503 2348.0461 295.309 2348.2941C296.851 2348.6481 298.605 2348.9311 300.1 2348.2541C301.224 2347.4331 302.753 2346.2651 302.771 2344.7841C302.255 2343.0271 300.921 2341.5061 299.27 2340.7841C298.201 2340.3161 296.998 2340.1841 295.799 2340.5411Z"/></g></svg>